<?xml version="1.0" encoding="UTF-8" standalone="no"?><svg xmlns="http://www.w3.org/2000/svg" xmlns:xlink="http://www.w3.org/1999/xlink" contentScriptType="application/ecmascript" contentStyleType="text/css" height="296px" preserveAspectRatio="none" style="width:162px;height:296px;background:#FFFFFF;" version="1.1" viewBox="0 0 162 296" width="162px" zoomAndPan="magnify"><defs><filter height="300%" id="fmauo4xxgn45s" width="300%" x="-1" y="-1"><feGaussianBlur result="blurOut" stdDeviation="2.0"/><feColorMatrix in="blurOut" result="blurOut2" type="matrix" values="0 0 0 0 0 0 0 0 0 0 0 0 0 0 0 0 0 0 .4 0"/><feOffset dx="4.0" dy="4.0" in="blurOut2" result="blurOut3"/><feBlend in="SourceGraphic" in2="blurOut3" mode="normal"/></filter></defs><g><!--MD5=[f061b633de56a323bd4d344a8bec65fe]
class PostalCode--><rect codeLine="1" fill="#FEFECE" filter="url(#fmauo4xxgn45s)" height="86.4141" id="PostalCode" style="stroke:#A80036;stroke-width:1.5;" width="103" x="7" y="7"/><ellipse cx="22" cy="23" fill="#ADD1B2" rx="11" ry="11" style="stroke:#A80036;stroke-width:1.0;"/><path d="M26.1094,29 L18.3906,29 L18.3906,16.6094 L26.1094,16.6094 L26.1094,18.7656 L20.8438,18.7656 L20.8438,21.4375 L25.6094,21.4375 L25.6094,23.5938 L20.8438,23.5938 L20.8438,26.8438 L26.1094,26.8438 L26.1094,29 Z " fill="#000000"/><text fill="#000000" font-family="sans-serif" font-size="12" lengthAdjust="spacing" textLength="71" x="36" y="27.1543">PostalCode</text><line style="stroke:#A80036;stroke-width:1.5;" x1="8" x2="109" y1="39" y2="39"/><rect fill="none" height="6" style="stroke:#C82930;stroke-width:1.0;" width="6" x="15" y="47"/><text fill="#000000" font-family="sans-serif" font-size="11" lengthAdjust="spacing" textLength="10" x="27" y="53.2104">id</text><ellipse cx="18" cy="62.8047" rx="3" ry="3" style="stroke:#038048;stroke-width:1.0;fill:none;"/><text fill="#000000" font-family="sans-serif" font-size="11" lengthAdjust="spacing" textLength="27" x="27" y="66.0151">code</text><ellipse cx="18" cy="75.6094" rx="3" ry="3" style="stroke:#038048;stroke-width:1.0;fill:none;"/><text fill="#000000" font-family="sans-serif" font-size="11" lengthAdjust="spacing" textLength="56" x="27" y="78.8198">the_geom</text><line style="stroke:#A80036;stroke-width:1.5;" x1="8" x2="109" y1="85.4141" y2="85.4141"/><!--MD5=[663dc5dbf536b78ca04758e0d70feeb4]
class PayStats--><rect codeLine="7" fill="#FEFECE" filter="url(#fmauo4xxgn45s)" height="112.0234" id="PayStats" style="stroke:#A80036;stroke-width:1.5;" width="87" x="15" y="170"/><ellipse cx="30" cy="186" fill="#ADD1B2" rx="11" ry="11" style="stroke:#A80036;stroke-width:1.0;"/><path d="M34.1094,192 L26.3906,192 L26.3906,179.6094 L34.1094,179.6094 L34.1094,181.7656 L28.8438,181.7656 L28.8438,184.4375 L33.6094,184.4375 L33.6094,186.5938 L28.8438,186.5938 L28.8438,189.8438 L34.1094,189.8438 L34.1094,192 Z " fill="#000000"/><text fill="#000000" font-family="sans-serif" font-size="12" lengthAdjust="spacing" textLength="55" x="44" y="190.1543">PayStats</text><line style="stroke:#A80036;stroke-width:1.5;" x1="16" x2="101" y1="202" y2="202"/><rect fill="none" height="6" style="stroke:#C82930;stroke-width:1.0;" width="6" x="23" y="210"/><text fill="#000000" font-family="sans-serif" font-size="11" lengthAdjust="spacing" textLength="10" x="35" y="216.2104">id</text><ellipse cx="26" cy="225.8047" rx="3" ry="3" style="stroke:#038048;stroke-width:1.0;fill:none;"/><text fill="#000000" font-family="sans-serif" font-size="11" lengthAdjust="spacing" textLength="43" x="35" y="229.0151">amount</text><ellipse cx="26" cy="238.6094" rx="3" ry="3" style="stroke:#038048;stroke-width:1.0;fill:none;"/><text fill="#000000" font-family="sans-serif" font-size="11" lengthAdjust="spacing" textLength="49" x="35" y="241.8198">p_month</text><ellipse cx="26" cy="251.4141" rx="3" ry="3" style="stroke:#038048;stroke-width:1.0;fill:none;"/><text fill="#000000" font-family="sans-serif" font-size="11" lengthAdjust="spacing" textLength="34" x="35" y="254.6245">p_age</text><ellipse cx="26" cy="264.2188" rx="3" ry="3" style="stroke:#038048;stroke-width:1.0;fill:none;"/><text fill="#000000" font-family="sans-serif" font-size="11" lengthAdjust="spacing" textLength="53" x="35" y="267.4292">p_gender</text><line style="stroke:#A80036;stroke-width:1.5;" x1="16" x2="101" y1="274.0234" y2="274.0234"/><!--MD5=[ae1895ce3234f8df441ae8ce198e9bb5]
link PostalCode to PayStats--><path codeLine="15" d="M58.5,93.0544 C58.5,113.6288 58.5,138.6838 58.5,161.4729 " fill="none" id="PostalCode-to-PayStats" style="stroke:#A80036;stroke-width:1.0;"/><line style="stroke:#A80036;stroke-width:1.0;" x1="58.5" x2="66.5" y1="161.7538" y2="169.7538"/><line style="stroke:#A80036;stroke-width:1.0;" x1="58.5" x2="50.5" y1="161.7538" y2="169.7538"/><line style="stroke:#A80036;stroke-width:1.0;" x1="58.5" x2="58.5" y1="161.7538" y2="169.7538"/><text fill="#000000" font-family="sans-serif" font-size="13" lengthAdjust="spacing" textLength="95" x="59.5" y="136.0669">postal_code_id</text><!--MD5=[62ac037bb723f5c9b18c254fe5a63366]
@startuml stub
entity PostalCode {
    - id
    + code
    + the_geom
}

entity PayStats {
    - id
    + amount
    + p_month
    + p_age
    + p_gender
}

PostalCode - -{ PayStats: postal_code_id

@enduml

PlantUML version 1.2021.7(Sun May 23 14:40:07 CEST 2021)
(GPL source distribution)
Java Runtime: OpenJDK Runtime Environment
JVM: OpenJDK 64-Bit Server VM
Default Encoding: UTF-8
Language: es
Country: ES
--></g></svg>